ISO-10303-21;
HEADER;
/* Generated by software containing ST-Developer
 * from STEP Tools, Inc. (www.steptools.com) 
 */
/* OPTION: using custom renumber hook */

FILE_DESCRIPTION(
/* description */ ('STEP AP242',
'CAx-IF Rec.Pracs.---Representation and Presentation of Product Manufa
cturing Information (PMI)---4.0---2014-10-13',
'CAx-IF Rec.Pracs.---3D Tessellated Geometry---0.4---2014-09-14','2;1'),

/* implementation_level */ '2;1');

FILE_NAME(
/* name */ '66bad0206804276636a263e2',
/* time_stamp */ '2024-08-13T03:16:48Z',
/* author */ (''),
/* organization */ (''),
/* preprocessor_version */ 'ST-DEVELOPER v20',
/* originating_system */ '  ',
/* authorisation */ '  ');

FILE_SCHEMA (('AP242_MANAGED_MODEL_BASED_3D_ENGINEERING_MIM_LF { 1 0 10303 442 1 1 4 }'));
ENDSEC;

DATA;
#10=SHAPE_REPRESENTATION_RELATIONSHIP('','',#289,#11);
#11=ADVANCED_BREP_SHAPE_REPRESENTATION('',(#287),#491);
#12=PLANE('',#297);
#13=PLANE('',#298);
#14=PLANE('',#305);
#15=PLANE('',#306);
#16=PLANE('',#313);
#17=PLANE('',#314);
#18=PLANE('',#317);
#19=PLANE('',#318);
#20=LINE('',#423,#44);
#21=LINE('',#427,#45);
#22=LINE('',#429,#46);
#23=LINE('',#430,#47);
#24=LINE('',#435,#48);
#25=LINE('',#436,#49);
#26=LINE('',#438,#50);
#27=LINE('',#443,#51);
#28=LINE('',#450,#52);
#29=LINE('',#451,#53);
#30=LINE('',#453,#54);
#31=LINE('',#454,#55);
#32=LINE('',#459,#56);
#33=LINE('',#460,#57);
#34=LINE('',#462,#58);
#35=LINE('',#467,#59);
#36=LINE('',#471,#60);
#37=LINE('',#475,#61);
#38=LINE('',#477,#62);
#39=LINE('',#478,#63);
#40=LINE('',#480,#64);
#41=LINE('',#484,#65);
#42=LINE('',#486,#66);
#43=LINE('',#487,#67);
#44=VECTOR('',#331,1.);
#45=VECTOR('',#334,1.);
#46=VECTOR('',#337,1.);
#47=VECTOR('',#338,1.);
#48=VECTOR('',#343,1.);
#49=VECTOR('',#344,1.);
#50=VECTOR('',#347,1.);
#51=VECTOR('',#350,1.);
#52=VECTOR('',#357,1.);
#53=VECTOR('',#358,1.);
#54=VECTOR('',#361,1.);
#55=VECTOR('',#362,1.);
#56=VECTOR('',#367,1.);
#57=VECTOR('',#368,1.);
#58=VECTOR('',#371,1.);
#59=VECTOR('',#374,1.);
#60=VECTOR('',#379,1.);
#61=VECTOR('',#382,1.);
#62=VECTOR('',#385,1.);
#63=VECTOR('',#386,1.);
#64=VECTOR('',#389,1.);
#65=VECTOR('',#392,1.);
#66=VECTOR('',#395,1.);
#67=VECTOR('',#396,1.);
#68=CYLINDRICAL_SURFACE('',#294,0.0089);
#69=CYLINDRICAL_SURFACE('',#300,0.0067);
#70=CYLINDRICAL_SURFACE('',#303,0.0074);
#71=CYLINDRICAL_SURFACE('',#308,0.0029);
#72=CYLINDRICAL_SURFACE('',#311,0.0036);
#73=CYLINDRICAL_SURFACE('',#316,0.0016);
#74=B_SPLINE_CURVE_WITH_KNOTS('',3,(#406,#407,#408,#409,#410),
 .UNSPECIFIED.,.F.,.F.,(4,1,4),(0.0182964894112475,0.0207025733989962,0.023108657386745),
 .UNSPECIFIED.);
#75=B_SPLINE_CURVE_WITH_KNOTS('',3,(#414,#415,#416,#417,#418),
 .UNSPECIFIED.,.F.,.F.,(4,1,4),(0.0182964894112475,0.0207025733989962,0.023108657386745),
 .UNSPECIFIED.);
#76=ORIENTED_EDGE('',*,*,#154,.F.);
#77=ORIENTED_EDGE('',*,*,#155,.T.);
#78=ORIENTED_EDGE('',*,*,#156,.F.);
#79=ORIENTED_EDGE('',*,*,#157,.F.);
#80=ORIENTED_EDGE('',*,*,#158,.T.);
#81=ORIENTED_EDGE('',*,*,#159,.T.);
#82=ORIENTED_EDGE('',*,*,#160,.F.);
#83=ORIENTED_EDGE('',*,*,#161,.F.);
#84=ORIENTED_EDGE('',*,*,#162,.F.);
#85=ORIENTED_EDGE('',*,*,#154,.T.);
#86=ORIENTED_EDGE('',*,*,#163,.T.);
#87=ORIENTED_EDGE('',*,*,#160,.T.);
#88=ORIENTED_EDGE('',*,*,#164,.F.);
#89=ORIENTED_EDGE('',*,*,#165,.T.);
#90=ORIENTED_EDGE('',*,*,#158,.F.);
#91=ORIENTED_EDGE('',*,*,#166,.F.);
#92=ORIENTED_EDGE('',*,*,#167,.F.);
#93=ORIENTED_EDGE('',*,*,#168,.T.);
#94=ORIENTED_EDGE('',*,*,#169,.T.);
#95=ORIENTED_EDGE('',*,*,#170,.F.);
#96=ORIENTED_EDGE('',*,*,#171,.F.);
#97=ORIENTED_EDGE('',*,*,#172,.T.);
#98=ORIENTED_EDGE('',*,*,#164,.T.);
#99=ORIENTED_EDGE('',*,*,#173,.F.);
#100=ORIENTED_EDGE('',*,*,#174,.F.);
#101=ORIENTED_EDGE('',*,*,#171,.T.);
#102=ORIENTED_EDGE('',*,*,#175,.T.);
#103=ORIENTED_EDGE('',*,*,#168,.F.);
#104=ORIENTED_EDGE('',*,*,#176,.T.);
#105=ORIENTED_EDGE('',*,*,#177,.T.);
#106=ORIENTED_EDGE('',*,*,#170,.T.);
#107=ORIENTED_EDGE('',*,*,#178,.F.);
#108=ORIENTED_EDGE('',*,*,#179,.F.);
#109=ORIENTED_EDGE('',*,*,#180,.F.);
#110=ORIENTED_EDGE('',*,*,#181,.T.);
#111=ORIENTED_EDGE('',*,*,#182,.T.);
#112=ORIENTED_EDGE('',*,*,#156,.T.);
#113=ORIENTED_EDGE('',*,*,#183,.T.);
#114=ORIENTED_EDGE('',*,*,#184,.F.);
#115=ORIENTED_EDGE('',*,*,#185,.F.);
#116=ORIENTED_EDGE('',*,*,#186,.F.);
#117=ORIENTED_EDGE('',*,*,#182,.F.);
#118=ORIENTED_EDGE('',*,*,#187,.T.);
#119=ORIENTED_EDGE('',*,*,#184,.T.);
#120=ORIENTED_EDGE('',*,*,#188,.F.);
#121=ORIENTED_EDGE('',*,*,#189,.F.);
#122=ORIENTED_EDGE('',*,*,#190,.T.);
#123=ORIENTED_EDGE('',*,*,#180,.T.);
#124=ORIENTED_EDGE('',*,*,#189,.T.);
#125=ORIENTED_EDGE('',*,*,#191,.F.);
#126=ORIENTED_EDGE('',*,*,#176,.F.);
#127=ORIENTED_EDGE('',*,*,#192,.T.);
#128=ORIENTED_EDGE('',*,*,#178,.T.);
#129=ORIENTED_EDGE('',*,*,#169,.F.);
#130=ORIENTED_EDGE('',*,*,#175,.F.);
#131=ORIENTED_EDGE('',*,*,#173,.T.);
#132=ORIENTED_EDGE('',*,*,#166,.T.);
#133=ORIENTED_EDGE('',*,*,#161,.T.);
#134=ORIENTED_EDGE('',*,*,#163,.F.);
#135=ORIENTED_EDGE('',*,*,#157,.T.);
#136=ORIENTED_EDGE('',*,*,#185,.T.);
#137=ORIENTED_EDGE('',*,*,#187,.F.);
#138=ORIENTED_EDGE('',*,*,#181,.F.);
#139=ORIENTED_EDGE('',*,*,#190,.F.);
#140=ORIENTED_EDGE('',*,*,#192,.F.);
#141=ORIENTED_EDGE('',*,*,#191,.T.);
#142=ORIENTED_EDGE('',*,*,#188,.T.);
#143=ORIENTED_EDGE('',*,*,#179,.T.);
#144=ORIENTED_EDGE('',*,*,#186,.T.);
#145=ORIENTED_EDGE('',*,*,#183,.F.);
#146=ORIENTED_EDGE('',*,*,#155,.F.);
#147=ORIENTED_EDGE('',*,*,#162,.T.);
#148=ORIENTED_EDGE('',*,*,#159,.F.);
#149=ORIENTED_EDGE('',*,*,#165,.F.);
#150=ORIENTED_EDGE('',*,*,#172,.F.);
#151=ORIENTED_EDGE('',*,*,#174,.T.);
#152=ORIENTED_EDGE('',*,*,#167,.T.);
#153=ORIENTED_EDGE('',*,*,#177,.F.);
#154=EDGE_CURVE('',#193,#194,#219,.F.);
#155=EDGE_CURVE('',#193,#195,#74,.T.);
#156=EDGE_CURVE('',#196,#195,#220,.T.);
#157=EDGE_CURVE('',#194,#196,#75,.T.);
#158=EDGE_CURVE('',#197,#198,#221,.T.);
#159=EDGE_CURVE('',#198,#199,#20,.F.);
#160=EDGE_CURVE('',#200,#199,#222,.T.);
#161=EDGE_CURVE('',#197,#200,#21,.F.);
#162=EDGE_CURVE('',#193,#199,#22,.T.);
#163=EDGE_CURVE('',#194,#200,#23,.T.);
#164=EDGE_CURVE('',#201,#202,#223,.T.);
#165=EDGE_CURVE('',#201,#198,#24,.T.);
#166=EDGE_CURVE('',#202,#197,#25,.T.);
#167=EDGE_CURVE('',#203,#204,#26,.T.);
#168=EDGE_CURVE('',#203,#205,#224,.T.);
#169=EDGE_CURVE('',#205,#206,#27,.T.);
#170=EDGE_CURVE('',#204,#206,#225,.T.);
#171=EDGE_CURVE('',#207,#208,#226,.T.);
#172=EDGE_CURVE('',#207,#201,#28,.T.);
#173=EDGE_CURVE('',#208,#202,#29,.T.);
#174=EDGE_CURVE('',#207,#203,#30,.T.);
#175=EDGE_CURVE('',#208,#205,#31,.T.);
#176=EDGE_CURVE('',#209,#210,#227,.T.);
#177=EDGE_CURVE('',#210,#204,#32,.T.);
#178=EDGE_CURVE('',#209,#206,#33,.T.);
#179=EDGE_CURVE('',#211,#212,#34,.F.);
#180=EDGE_CURVE('',#213,#211,#228,.T.);
#181=EDGE_CURVE('',#213,#214,#35,.F.);
#182=EDGE_CURVE('',#214,#212,#229,.T.);
#183=EDGE_CURVE('',#195,#215,#36,.F.);
#184=EDGE_CURVE('',#216,#215,#230,.T.);
#185=EDGE_CURVE('',#196,#216,#37,.F.);
#186=EDGE_CURVE('',#212,#215,#38,.T.);
#187=EDGE_CURVE('',#214,#216,#39,.T.);
#188=EDGE_CURVE('',#217,#211,#40,.T.);
#189=EDGE_CURVE('',#218,#217,#231,.T.);
#190=EDGE_CURVE('',#218,#213,#41,.T.);
#191=EDGE_CURVE('',#210,#217,#42,.T.);
#192=EDGE_CURVE('',#209,#218,#43,.T.);
#193=VERTEX_POINT('',#404);
#194=VERTEX_POINT('',#405);
#195=VERTEX_POINT('',#411);
#196=VERTEX_POINT('',#413);
#197=VERTEX_POINT('',#421);
#198=VERTEX_POINT('',#422);
#199=VERTEX_POINT('',#424);
#200=VERTEX_POINT('',#426);
#201=VERTEX_POINT('',#433);
#202=VERTEX_POINT('',#434);
#203=VERTEX_POINT('',#439);
#204=VERTEX_POINT('',#440);
#205=VERTEX_POINT('',#442);
#206=VERTEX_POINT('',#444);
#207=VERTEX_POINT('',#448);
#208=VERTEX_POINT('',#449);
#209=VERTEX_POINT('',#457);
#210=VERTEX_POINT('',#458);
#211=VERTEX_POINT('',#463);
#212=VERTEX_POINT('',#464);
#213=VERTEX_POINT('',#466);
#214=VERTEX_POINT('',#468);
#215=VERTEX_POINT('',#472);
#216=VERTEX_POINT('',#474);
#217=VERTEX_POINT('',#481);
#218=VERTEX_POINT('',#483);
#219=CIRCLE('',#292,0.0066);
#220=CIRCLE('',#293,0.0036);
#221=CIRCLE('',#295,0.0089);
#222=CIRCLE('',#296,0.0089);
#223=CIRCLE('',#299,0.0074);
#224=CIRCLE('',#301,0.0067);
#225=CIRCLE('',#302,0.0067);
#226=CIRCLE('',#304,0.0074);
#227=CIRCLE('',#307,0.0016);
#228=CIRCLE('',#309,0.0029);
#229=CIRCLE('',#310,0.0029);
#230=CIRCLE('',#312,0.0036);
#231=CIRCLE('',#315,0.0016);
#232=EDGE_LOOP('',(#76,#77,#78,#79));
#233=EDGE_LOOP('',(#80,#81,#82,#83));
#234=EDGE_LOOP('',(#84,#85,#86,#87));
#235=EDGE_LOOP('',(#88,#89,#90,#91));
#236=EDGE_LOOP('',(#92,#93,#94,#95));
#237=EDGE_LOOP('',(#96,#97,#98,#99));
#238=EDGE_LOOP('',(#100,#101,#102,#103));
#239=EDGE_LOOP('',(#104,#105,#106,#107));
#240=EDGE_LOOP('',(#108,#109,#110,#111));
#241=EDGE_LOOP('',(#112,#113,#114,#115));
#242=EDGE_LOOP('',(#116,#117,#118,#119));
#243=EDGE_LOOP('',(#120,#121,#122,#123));
#244=EDGE_LOOP('',(#124,#125,#126,#127));
#245=EDGE_LOOP('',(#128,#129,#130,#131,#132,#133,#134,#135,#136,#137,#138,
#139,#140));
#246=EDGE_LOOP('',(#141,#142,#143,#144,#145,#146,#147,#148,#149,#150,#151,
#152,#153));
#247=FACE_BOUND('',#232,.T.);
#248=FACE_BOUND('',#233,.T.);
#249=FACE_BOUND('',#234,.T.);
#250=FACE_BOUND('',#235,.T.);
#251=FACE_BOUND('',#236,.T.);
#252=FACE_BOUND('',#237,.T.);
#253=FACE_BOUND('',#238,.T.);
#254=FACE_BOUND('',#239,.T.);
#255=FACE_BOUND('',#240,.T.);
#256=FACE_BOUND('',#241,.T.);
#257=FACE_BOUND('',#242,.T.);
#258=FACE_BOUND('',#243,.T.);
#259=FACE_BOUND('',#244,.T.);
#260=FACE_BOUND('',#245,.T.);
#261=FACE_BOUND('',#246,.T.);
#262=TOROIDAL_SURFACE('',#291,0.0066,0.003);
#263=ADVANCED_FACE('',(#247),#262,.F.);
#264=ADVANCED_FACE('',(#248),#68,.T.);
#265=ADVANCED_FACE('',(#249),#12,.T.);
#266=ADVANCED_FACE('',(#250),#13,.F.);
#267=ADVANCED_FACE('',(#251),#69,.F.);
#268=ADVANCED_FACE('',(#252),#70,.T.);
#269=ADVANCED_FACE('',(#253),#14,.T.);
#270=ADVANCED_FACE('',(#254),#15,.F.);
#271=ADVANCED_FACE('',(#255),#71,.F.);
#272=ADVANCED_FACE('',(#256),#72,.T.);
#273=ADVANCED_FACE('',(#257),#16,.T.);
#274=ADVANCED_FACE('',(#258),#17,.T.);
#275=ADVANCED_FACE('',(#259),#73,.F.);
#276=ADVANCED_FACE('',(#260),#18,.T.);
#277=ADVANCED_FACE('',(#261),#19,.F.);
#278=CLOSED_SHELL('',(#263,#264,#265,#266,#267,#268,#269,#270,#271,#272,
#273,#274,#275,#276,#277));
#279=STYLED_ITEM('',(#280),#287);
#280=PRESENTATION_STYLE_ASSIGNMENT((#281));
#281=SURFACE_STYLE_USAGE(.BOTH.,#282);
#282=SURFACE_SIDE_STYLE('',(#283));
#283=SURFACE_STYLE_FILL_AREA(#284);
#284=FILL_AREA_STYLE('',(#285));
#285=FILL_AREA_STYLE_COLOUR('',#286);
#286=COLOUR_RGB('',0.615686274509804,0.811764705882353,0.929411764705882);
#287=MANIFOLD_SOLID_BREP('Part 1',#278);
#288=SHAPE_DEFINITION_REPRESENTATION(#496,#289);
#289=SHAPE_REPRESENTATION('Part 1',(#290),#491);
#290=AXIS2_PLACEMENT_3D('',#401,#319,#320);
#291=AXIS2_PLACEMENT_3D('',#402,#321,#322);
#292=AXIS2_PLACEMENT_3D('',#403,#323,#324);
#293=AXIS2_PLACEMENT_3D('',#412,#325,#326);
#294=AXIS2_PLACEMENT_3D('',#419,#327,#328);
#295=AXIS2_PLACEMENT_3D('',#420,#329,#330);
#296=AXIS2_PLACEMENT_3D('',#425,#332,#333);
#297=AXIS2_PLACEMENT_3D('',#428,#335,#336);
#298=AXIS2_PLACEMENT_3D('',#431,#339,#340);
#299=AXIS2_PLACEMENT_3D('',#432,#341,#342);
#300=AXIS2_PLACEMENT_3D('',#437,#345,#346);
#301=AXIS2_PLACEMENT_3D('',#441,#348,#349);
#302=AXIS2_PLACEMENT_3D('',#445,#351,#352);
#303=AXIS2_PLACEMENT_3D('',#446,#353,#354);
#304=AXIS2_PLACEMENT_3D('',#447,#355,#356);
#305=AXIS2_PLACEMENT_3D('',#452,#359,#360);
#306=AXIS2_PLACEMENT_3D('',#455,#363,#364);
#307=AXIS2_PLACEMENT_3D('',#456,#365,#366);
#308=AXIS2_PLACEMENT_3D('',#461,#369,#370);
#309=AXIS2_PLACEMENT_3D('',#465,#372,#373);
#310=AXIS2_PLACEMENT_3D('',#469,#375,#376);
#311=AXIS2_PLACEMENT_3D('',#470,#377,#378);
#312=AXIS2_PLACEMENT_3D('',#473,#380,#381);
#313=AXIS2_PLACEMENT_3D('',#476,#383,#384);
#314=AXIS2_PLACEMENT_3D('',#479,#387,#388);
#315=AXIS2_PLACEMENT_3D('',#482,#390,#391);
#316=AXIS2_PLACEMENT_3D('',#485,#393,#394);
#317=AXIS2_PLACEMENT_3D('',#488,#397,#398);
#318=AXIS2_PLACEMENT_3D('',#489,#399,#400);
#319=DIRECTION('',(0.,0.,1.));
#320=DIRECTION('',(1.,0.,0.));
#321=DIRECTION('',(0.,0.,1.));
#322=DIRECTION('',(1.,0.,0.));
#323=DIRECTION('',(0.,0.,1.));
#324=DIRECTION('',(1.,0.,0.));
#325=DIRECTION('',(0.,0.,1.));
#326=DIRECTION('',(1.,0.,0.));
#327=DIRECTION('',(0.,0.,-1.));
#328=DIRECTION('',(-1.,0.,0.));
#329=DIRECTION('',(0.,0.,1.));
#330=DIRECTION('',(1.,0.,0.));
#331=DIRECTION('',(0.,0.,-1.));
#332=DIRECTION('',(0.,0.,1.));
#333=DIRECTION('',(1.,0.,0.));
#334=DIRECTION('',(0.,0.,-1.));
#335=DIRECTION('',(0.,0.,1.));
#336=DIRECTION('',(1.,0.,0.));
#337=DIRECTION('',(-1.,0.,0.));
#338=DIRECTION('',(-1.,0.,0.));
#339=DIRECTION('',(0.,0.,1.));
#340=DIRECTION('',(1.,0.,0.));
#341=DIRECTION('',(0.,0.,-1.));
#342=DIRECTION('',(-1.,0.,0.));
#343=DIRECTION('',(-1.,0.,0.));
#344=DIRECTION('',(-1.,0.,0.));
#345=DIRECTION('',(0.,0.,1.));
#346=DIRECTION('',(1.,0.,0.));
#347=DIRECTION('',(0.,0.,1.));
#348=DIRECTION('',(0.,0.,-1.));
#349=DIRECTION('',(-1.,0.,0.));
#350=DIRECTION('',(0.,0.,1.));
#351=DIRECTION('',(0.,0.,-1.));
#352=DIRECTION('',(-1.,0.,0.));
#353=DIRECTION('',(0.,0.,1.));
#354=DIRECTION('',(1.,0.,0.));
#355=DIRECTION('',(0.,0.,-1.));
#356=DIRECTION('',(-1.,0.,0.));
#357=DIRECTION('',(0.,0.,1.));
#358=DIRECTION('',(0.,0.,1.));
#359=DIRECTION('',(0.,0.,-1.));
#360=DIRECTION('',(1.,0.,0.));
#361=DIRECTION('',(1.,0.,0.));
#362=DIRECTION('',(1.,0.,0.));
#363=DIRECTION('',(0.,0.,1.));
#364=DIRECTION('',(1.,0.,0.));
#365=DIRECTION('',(0.,0.,1.));
#366=DIRECTION('',(1.,0.,0.));
#367=DIRECTION('',(-1.,0.,0.));
#368=DIRECTION('',(-1.,0.,0.));
#369=DIRECTION('',(0.,0.,-1.));
#370=DIRECTION('',(-1.,0.,0.));
#371=DIRECTION('',(0.,0.,-1.));
#372=DIRECTION('',(0.,0.,1.));
#373=DIRECTION('',(1.,0.,0.));
#374=DIRECTION('',(0.,0.,-1.));
#375=DIRECTION('',(0.,0.,1.));
#376=DIRECTION('',(1.,0.,0.));
#377=DIRECTION('',(0.,0.,-1.));
#378=DIRECTION('',(-1.,0.,0.));
#379=DIRECTION('',(0.,0.,-1.));
#380=DIRECTION('',(0.,0.,1.));
#381=DIRECTION('',(1.,0.,0.));
#382=DIRECTION('',(0.,0.,-1.));
#383=DIRECTION('',(0.,0.,1.));
#384=DIRECTION('',(1.,0.,0.));
#385=DIRECTION('',(-1.,0.,0.));
#386=DIRECTION('',(-1.,0.,0.));
#387=DIRECTION('',(0.,0.,1.));
#388=DIRECTION('',(1.,0.,0.));
#389=DIRECTION('',(-1.,0.,0.));
#390=DIRECTION('',(0.,0.,1.));
#391=DIRECTION('',(1.,0.,0.));
#392=DIRECTION('',(-1.,0.,0.));
#393=DIRECTION('',(0.,0.,1.));
#394=DIRECTION('',(1.,0.,0.));
#395=DIRECTION('',(0.,6.07153216591883E-17,1.));
#396=DIRECTION('',(0.,6.07153216591883E-17,1.));
#397=DIRECTION('',(0.,1.,-6.07153216591883E-17));
#398=DIRECTION('',(0.,6.07153216591883E-17,1.));
#399=DIRECTION('',(0.,1.,-6.07153216591883E-17));
#400=DIRECTION('',(0.,6.07153216591883E-17,1.));
#401=CARTESIAN_POINT('',(0.,0.,0.));
#402=CARTESIAN_POINT('',(0.,7.65404249467096E-19,0.0045));
#403=CARTESIAN_POINT('',(0.,7.65404249467096E-19,0.0015));
#404=CARTESIAN_POINT('',(-0.00640312423743285,0.0016,0.00149999999999996));
#405=CARTESIAN_POINT('',(-0.00640312423743285,-0.0016,0.00149999999999996));
#406=CARTESIAN_POINT('',(-0.00640312423743285,0.0016,0.00149999999999998));
#407=CARTESIAN_POINT('',(-0.00559527571765375,0.0016,0.00149999999999998));
#408=CARTESIAN_POINT('',(-0.00398720158068816,0.0016,0.0021308225591103));
#409=CARTESIAN_POINT('',(-0.00322490309931942,0.0016,0.0036954845924668));
#410=CARTESIAN_POINT('',(-0.00322490309931942,0.0016,0.0045));
#411=CARTESIAN_POINT('',(-0.00322490309931942,0.0016,0.0045));
#412=CARTESIAN_POINT('',(0.,7.65404249467096E-19,0.0045));
#413=CARTESIAN_POINT('',(-0.00322490309931942,-0.0016,0.0045));
#414=CARTESIAN_POINT('',(-0.00640312423743285,-0.0016,0.00149999999999998));
#415=CARTESIAN_POINT('',(-0.00559527571765375,-0.0016,0.00149999999999998));
#416=CARTESIAN_POINT('',(-0.00398720158068816,-0.0016,0.0021308225591103));
#417=CARTESIAN_POINT('',(-0.00322490309931942,-0.0016,0.0036954845924668));
#418=CARTESIAN_POINT('',(-0.00322490309931942,-0.0016,0.0045));
#419=CARTESIAN_POINT('',(0.,5.44967825620572E-19,0.0015));
#420=CARTESIAN_POINT('',(0.,5.44967825620572E-19,0.));
#421=CARTESIAN_POINT('',(-0.00875499857224431,-0.0016,0.));
#422=CARTESIAN_POINT('',(-0.00875499857224431,0.0016,0.));
#423=CARTESIAN_POINT('',(-0.00875499857224431,0.0016,0.0015));
#424=CARTESIAN_POINT('',(-0.00875499857224431,0.0016,0.0015));
#425=CARTESIAN_POINT('',(0.,5.44967825620572E-19,0.0015));
#426=CARTESIAN_POINT('',(-0.00875499857224431,-0.0016,0.0015));
#427=CARTESIAN_POINT('',(-0.00875499857224431,-0.0016,0.0015));
#428=CARTESIAN_POINT('',(0.,0.,0.0015));
#429=CARTESIAN_POINT('',(0.,0.0016,0.0015));
#430=CARTESIAN_POINT('',(0.,-0.0016,0.0015));
#431=CARTESIAN_POINT('',(0.,0.,0.));
#432=CARTESIAN_POINT('',(0.,-4.53119315684521E-19,0.));
#433=CARTESIAN_POINT('',(-0.00722495674727538,0.0016,0.));
#434=CARTESIAN_POINT('',(-0.00722495674727538,-0.0016,0.));
#435=CARTESIAN_POINT('',(0.,0.0016,0.));
#436=CARTESIAN_POINT('',(0.,-0.0016,0.));
#437=CARTESIAN_POINT('',(0.,-4.10256677714363E-19,-0.0032));
#438=CARTESIAN_POINT('',(-0.00650615093584525,0.0016,-0.0032));
#439=CARTESIAN_POINT('',(-0.00650615093584525,0.0016,-0.0032));
#440=CARTESIAN_POINT('',(-0.00650615093584525,0.0016,0.));
#441=CARTESIAN_POINT('',(0.,-4.10256677714363E-19,-0.0032));
#442=CARTESIAN_POINT('',(-0.00650615093584525,-0.0016,-0.0032));
#443=CARTESIAN_POINT('',(-0.00650615093584525,-0.0016,-0.0032));
#444=CARTESIAN_POINT('',(-0.00650615093584525,-0.0016,0.));
#445=CARTESIAN_POINT('',(0.,-4.10256677714363E-19,0.));
#446=CARTESIAN_POINT('',(0.,-4.53119315684521E-19,-0.0032));
#447=CARTESIAN_POINT('',(0.,-4.53119315684521E-19,-0.0032));
#448=CARTESIAN_POINT('',(-0.00722495674727538,0.0016,-0.0032));
#449=CARTESIAN_POINT('',(-0.00722495674727538,-0.0016,-0.0032));
#450=CARTESIAN_POINT('',(-0.00722495674727538,0.0016,-0.0032));
#451=CARTESIAN_POINT('',(-0.00722495674727538,-0.0016,-0.0032));
#452=CARTESIAN_POINT('',(0.,0.,-0.0032));
#453=CARTESIAN_POINT('',(0.,0.0016,-0.0032));
#454=CARTESIAN_POINT('',(0.,-0.0016,-0.0032));
#455=CARTESIAN_POINT('',(0.,0.,0.));
#456=CARTESIAN_POINT('',(0.,8.1439012143299E-19,0.));
#457=CARTESIAN_POINT('',(0.,-0.0016,0.));
#458=CARTESIAN_POINT('',(0.,0.0016,0.));
#459=CARTESIAN_POINT('',(0.,0.0016,0.));
#460=CARTESIAN_POINT('',(0.,-0.0016,0.));
#461=CARTESIAN_POINT('',(0.,7.22541611496938E-19,0.0053));
#462=CARTESIAN_POINT('',(-0.00241867732448957,0.0016,0.0053));
#463=CARTESIAN_POINT('',(-0.00241867732448957,0.0016,0.0015));
#464=CARTESIAN_POINT('',(-0.00241867732448957,0.0016,0.0053));
#465=CARTESIAN_POINT('',(0.,7.22541611496938E-19,0.0015));
#466=CARTESIAN_POINT('',(-0.00241867732448957,-0.0016,0.0015));
#467=CARTESIAN_POINT('',(-0.00241867732448957,-0.0016,0.0053));
#468=CARTESIAN_POINT('',(-0.00241867732448957,-0.0016,0.0053));
#469=CARTESIAN_POINT('',(0.,7.22541611496938E-19,0.0053));
#470=CARTESIAN_POINT('',(0.,7.65404249467096E-19,0.0053));
#471=CARTESIAN_POINT('',(-0.00322490309931942,0.0016,0.0053));
#472=CARTESIAN_POINT('',(-0.00322490309931942,0.0016,0.0053));
#473=CARTESIAN_POINT('',(0.,7.65404249467096E-19,0.0053));
#474=CARTESIAN_POINT('',(-0.00322490309931942,-0.0016,0.0053));
#475=CARTESIAN_POINT('',(-0.00322490309931942,-0.0016,0.0053));
#476=CARTESIAN_POINT('',(0.,0.,0.0053));
#477=CARTESIAN_POINT('',(0.,0.0016,0.0053));
#478=CARTESIAN_POINT('',(0.,-0.0016,0.0053));
#479=CARTESIAN_POINT('',(0.,0.,0.0015));
#480=CARTESIAN_POINT('',(0.,0.0016,0.0015));
#481=CARTESIAN_POINT('',(0.,0.0016,0.0015));
#482=CARTESIAN_POINT('',(0.,8.1439012143299E-19,0.0015));
#483=CARTESIAN_POINT('',(0.,-0.0016,0.0015));
#484=CARTESIAN_POINT('',(0.,-0.0016,0.0015));
#485=CARTESIAN_POINT('',(0.,8.1439012143299E-19,-0.0235));
#486=CARTESIAN_POINT('',(0.,0.0016,-2.08166817117217E-17));
#487=CARTESIAN_POINT('',(0.,-0.0016,-2.08166817117217E-17));
#488=CARTESIAN_POINT('',(-0.025,-0.0016,-2.08166817117217E-17));
#489=CARTESIAN_POINT('',(-0.025,0.0016,-2.08166817117217E-17));
#490=MECHANICAL_DESIGN_GEOMETRIC_PRESENTATION_REPRESENTATION('',(#279),
#491);
#491=(
GEOMETRIC_REPRESENTATION_CONTEXT(3)
GLOBAL_UNCERTAINTY_ASSIGNED_CONTEXT((#492))
GLOBAL_UNIT_ASSIGNED_CONTEXT((#495,#494,#493))
REPRESENTATION_CONTEXT('Part 1','TOP_LEVEL_ASSEMBLY_PART')
);
#492=UNCERTAINTY_MEASURE_WITH_UNIT(LENGTH_MEASURE(5.E-6),#495,
'DISTANCE_ACCURACY_VALUE','Maximum Tolerance applied to model');
#493=(
NAMED_UNIT(*)
SI_UNIT($,.STERADIAN.)
SOLID_ANGLE_UNIT()
);
#494=(
NAMED_UNIT(*)
PLANE_ANGLE_UNIT()
SI_UNIT($,.RADIAN.)
);
#495=(
LENGTH_UNIT()
NAMED_UNIT(*)
SI_UNIT($,.METRE.)
);
#496=PRODUCT_DEFINITION_SHAPE('','',#497);
#497=PRODUCT_DEFINITION('','',#499,#498);
#498=PRODUCT_DEFINITION_CONTEXT('',#505,'design');
#499=PRODUCT_DEFINITION_FORMATION_WITH_SPECIFIED_SOURCE('','',#501,
 .NOT_KNOWN.);
#500=PRODUCT_RELATED_PRODUCT_CATEGORY('','',(#501));
#501=PRODUCT('Part 1','Part 1','Part 1',(#503));
#502=PRODUCT_CATEGORY('','');
#503=PRODUCT_CONTEXT('',#505,'mechanical');
#504=APPLICATION_PROTOCOL_DEFINITION('international standard',
'ap242_managed_model_based_3d_engineering',2011,#505);
#505=APPLICATION_CONTEXT('managed model based 3d engineering');
ENDSEC;
END-ISO-10303-21;
